<svg width="44" height="45" viewBox="0 0 44 45" fill="none" xmlns="http://www.w3.org/2000/svg">
<g clip-path="url(#clip0_74_247)">
<path d="M33 14.7409H34.8333C36.7783 14.7409 38.6435 15.5135 40.0188 16.8888C41.394 18.2641 42.1667 20.1293 42.1667 22.0742C42.1667 24.0192 41.394 25.8844 40.0188 27.2597C38.6435 28.635 36.7783 29.4076 34.8333 29.4076H33" stroke="#253B59" stroke-width="1.83333" stroke-linecap="round" stroke-linejoin="round"/>
<path d="M3.66667 14.7409H33V31.2409C33 33.1858 32.2274 35.0511 30.8521 36.4264C29.4769 37.8016 27.6116 38.5742 25.6667 38.5742H11C9.05508 38.5742 7.18982 37.8016 5.81456 36.4264C4.43929 35.0511 3.66667 33.1858 3.66667 31.2409V14.7409Z" stroke="#253B59" stroke-width="1.83333" stroke-linecap="round" stroke-linejoin="round"/>
<path d="M11 1.90753V7.40753" stroke="#253B59" stroke-width="1.83333" stroke-linecap="round" stroke-linejoin="round"/>
<path d="M18.3333 1.90753V7.40753" stroke="#253B59" stroke-width="1.83333" stroke-linecap="round" stroke-linejoin="round"/>
<path d="M25.6667 1.90753V7.40753" stroke="#253B59" stroke-width="1.83333" stroke-linecap="round" stroke-linejoin="round"/>
</g>
<defs>
<clipPath id="clip0_74_247">
<rect width="44" height="44" fill="white" transform="translate(0 0.0742188)"/>
</clipPath>
</defs>
</svg>
