<svg width="44" height="48" viewBox="0 0 44 48" fill="none" xmlns="http://www.w3.org/2000/svg">
<path d="M10.8692 45.58L10.5981 46.5425L10.6061 46.5448L10.6141 46.5469L10.8692 45.58ZM3.54925 42.22L2.66063 41.7614L2.26136 42.5349L2.97257 43.037L3.54925 42.22ZM7.38925 34.78L7.97622 33.9704L7.03425 33.2875L6.50063 34.3214L7.38925 34.78ZM12.9092 37.54L12.5985 38.4905L12.6038 38.4922L12.9092 37.54ZM25.0893 37.12L25.6548 37.9447L25.6548 37.9447L25.0893 37.12ZM23.3492 28.3L23.0494 29.254L23.057 29.2564L23.3492 28.3ZM6.66925 27.64L5.6734 27.549L5.57371 28.64H6.66925L6.66925 27.64ZM8.82925 4V3H7.91645L7.8334 3.90901L8.82925 4ZM34.4493 4L35.4493 4V3L34.4493 3V4ZM34.4493 11.8V12.8H35.4493V11.8H34.4493ZM12.3092 11.8L11.6482 11.0496L9.66132 12.8H12.3092V11.8ZM17.3492 7.36L18.3453 7.44861L18.5672 4.95432L16.6882 6.60964L17.3492 7.36ZM15.8492 24.22L15.1882 24.9704L16.6703 26.276L16.8453 24.3086L15.8492 24.22ZM10.8092 19.78V18.78H8.16133L10.1482 20.5304L10.8092 19.78ZM29.7092 21.52L29.2911 22.4284L29.2997 22.4324L29.3084 22.4362L29.7092 21.52ZM35.2893 26.14L36.1498 25.6307L36.1498 25.6307L35.2893 26.14ZM35.1692 39.7L36.0282 40.2121L36.0324 40.2049L35.1692 39.7ZM29.4093 44.8L29.8565 45.6944L29.8619 45.6917L29.4093 44.8ZM19.5692 45.72C16.7371 45.72 13.9228 45.3516 11.1244 44.6131L10.6141 46.5469C13.5757 47.3284 16.5614 47.72 19.5692 47.72V45.72ZM11.1404 44.6175C8.39038 43.8428 6.05796 42.7668 4.12593 41.403L2.97257 43.037C5.12054 44.5532 7.66812 45.7172 10.5981 46.5425L11.1404 44.6175ZM4.43787 42.6786L8.27787 35.2386L6.50063 34.3214L2.66063 41.7614L4.43787 42.6786ZM6.80228 35.5896C8.49498 36.8168 10.4302 37.7816 12.5985 38.4905L13.22 36.5895C11.2283 35.9384 9.48352 35.0632 7.97622 33.9704L6.80228 35.5896ZM12.6038 38.4922C14.8195 39.2029 17.0624 39.56 19.3292 39.56V37.56C17.2761 37.56 15.239 37.2371 13.2147 36.5878L12.6038 38.4922ZM19.3292 39.56C21.8867 39.56 24.0301 39.0588 25.6548 37.9447L24.5237 36.2953C23.3484 37.1012 21.6518 37.56 19.3292 37.56V39.56ZM25.6548 37.9447C27.331 36.7953 28.1893 35.1445 28.1893 33.1H26.1893C26.1893 34.4955 25.6475 35.5247 24.5237 36.2953L25.6548 37.9447ZM28.1893 33.1C28.1893 31.837 27.8586 30.6812 27.1813 29.6653L25.5172 30.7747C25.9599 31.4388 26.1893 32.203 26.1893 33.1H28.1893ZM27.1813 29.6653C26.4434 28.5584 25.1978 27.8192 23.6415 27.3436L23.057 29.2564C24.3807 29.6608 25.1351 30.2016 25.5172 30.7747L27.1813 29.6653ZM23.6491 27.346C22.1058 26.861 20.0072 26.64 17.4092 26.64V28.64C19.9313 28.64 21.7927 28.859 23.0494 29.254L23.6491 27.346ZM17.4092 26.64H6.66925L6.66925 28.64H17.4092V26.64ZM7.6651 27.731L9.8251 4.09099L7.8334 3.90901L5.6734 27.549L7.6651 27.731ZM8.82925 5H34.4493V3H8.82925V5ZM33.4493 4V11.8H35.4493V4L33.4493 4ZM34.4493 10.8H12.3092V12.8H34.4493V10.8ZM12.9703 12.5504L18.0103 8.11036L16.6882 6.60964L11.6482 11.0496L12.9703 12.5504ZM16.3532 7.27138L14.8532 24.1314L16.8453 24.3086L18.3453 7.44861L16.3532 7.27138ZM16.5103 23.4696L11.4703 19.0296L10.1482 20.5304L15.1882 24.9704L16.5103 23.4696ZM10.8092 20.78H19.6893V18.78H10.8092L10.8092 20.78ZM19.6893 20.78C23.7706 20.78 26.9511 21.3512 29.2911 22.4284L30.1274 20.6116C27.4274 19.3688 23.9279 18.78 19.6893 18.78V20.78ZM29.3084 22.4362C31.7206 23.4915 33.3977 24.9074 34.4287 26.6493L36.1498 25.6307C34.8608 23.4526 32.8179 21.7885 30.1101 20.6038L29.3084 22.4362ZM34.4287 26.6493C35.4894 28.4415 36.0293 30.4828 36.0293 32.8H38.0293C38.0293 30.1572 37.4091 27.7585 36.1498 25.6307L34.4287 26.6493ZM36.0293 32.8C36.0293 35.1044 35.4556 37.2299 34.3061 39.1951L36.0324 40.2049C37.3629 37.9301 38.0293 35.4556 38.0293 32.8H36.0293ZM34.3103 39.1879C33.1853 41.0751 31.4227 42.6563 28.9566 43.9083L29.8619 45.6917C32.5958 44.3037 34.6732 42.4849 36.0282 40.2121L34.3103 39.1879ZM28.962 43.9056C26.5848 45.0942 23.472 45.72 19.5692 45.72V47.72C23.6665 47.72 27.1137 47.0658 29.8565 45.6944L28.962 43.9056Z" fill="white"/>
<path d="M21.083 38.7249C19.0877 38.7249 17.106 38.4652 15.138 37.9459C13.1973 37.3992 11.53 36.6339 10.136 35.6499L12.76 30.5659C13.8533 31.3586 15.1107 31.9872 16.532 32.4519C17.9807 32.9166 19.443 33.1489 20.919 33.1489C22.5863 33.1489 23.8983 32.8209 24.855 32.1649C25.8117 31.5089 26.29 30.5932 26.29 29.4179C26.29 28.6799 26.0987 28.0239 25.716 27.4499C25.3333 26.8759 24.65 26.4386 23.666 26.1379C22.7093 25.8372 21.3563 25.6869 19.607 25.6869H12.268L13.744 9.53291H31.251V14.8629H16.122L19.566 11.8289L18.541 23.3499L15.097 20.3159H21.165C24.0077 20.3159 26.29 20.7122 28.012 21.5049C29.7613 22.2702 31.0323 23.3226 31.825 24.6619C32.6177 26.0012 33.014 27.5182 33.014 29.2129C33.014 30.9076 32.5903 32.4792 31.743 33.9279C30.8957 35.3492 29.5837 36.5109 27.807 37.4129C26.0577 38.2876 23.8163 38.7249 21.083 38.7249Z" fill="#253B59"/>
</svg>
