<svg width="44" height="45" viewBox="0 0 44 45" fill="none" xmlns="http://www.w3.org/2000/svg">
<path d="M1.96745 35.18H0.967452V36.18H1.96745V35.18ZM1.96745 28.64L1.16486 28.0435L0.967452 28.3091V28.64H1.96745ZM21.7675 2V0.999997H21.2647L20.9649 1.40347L21.7675 2ZM31.9675 2L32.7761 2.58828L33.9315 0.999997L31.9675 0.999997V2ZM12.5875 28.64L12.3079 29.6001L12.9827 29.7966L13.3961 29.2283L12.5875 28.64ZM7.84745 27.26V26.26L7.56792 28.2201L7.84745 27.26ZM40.9075 27.26H41.9075V26.26H40.9075V27.26ZM40.9075 35.18V36.18H41.9075V35.18H40.9075ZM24.5875 44H23.5875V45H24.5875V44ZM24.5875 35.18L23.5882 35.1421L23.5875 35.1611V35.18H24.5875ZM24.8875 27.26L25.8867 27.2979L25.8875 27.2789V27.26H24.8875ZM24.8875 19.4V18.4H23.8875V19.4H24.8875ZM34.0675 19.4H35.0675V18.4H34.0675V19.4ZM34.0675 44V45H35.0675V44H34.0675ZM2.96745 35.18V28.64H0.967452L0.967452 35.18H2.96745ZM2.77005 29.2365L22.57 2.59652L20.9649 1.40347L1.16486 28.0435L2.77005 29.2365ZM21.7675 3H31.9675V0.999997H21.7675V3ZM31.1588 1.41172L11.7788 28.0517L13.3961 29.2283L32.7761 2.58828L31.1588 1.41172ZM12.867 27.6799L8.12699 26.2999L7.56792 28.2201L12.3079 29.6001L12.867 27.6799ZM7.84745 28.26H40.9075V26.26H7.84745V28.26ZM39.9075 27.26V35.18H41.9075V27.26H39.9075ZM40.9075 34.18H1.96745V36.18H40.9075V34.18ZM25.5875 44V35.18H23.5875V44H25.5875ZM25.5867 35.2179L25.8867 27.2979L23.8882 27.2221L23.5882 35.1421L25.5867 35.2179ZM25.8875 27.26V19.4H23.8875V27.26H25.8875ZM24.8875 20.4H34.0675V18.4H24.8875V20.4ZM33.0675 19.4V44H35.0675V19.4H33.0675ZM34.0675 43H24.5875V45H34.0675V43Z" fill="white"/>
<path d="M9.05512 30.7538L9.05512 26.2848L22.5851 8.08076H29.5551L16.3121 26.2848L13.0731 25.3418H35.6641V30.7538H9.05512ZM24.5121 36.7808V30.7538L24.7171 25.3418V19.9708H30.9901V36.7808H24.5121Z" fill="#253B59"/>
</svg>
