<svg width="33" height="33" viewBox="0 0 33 33" fill="none" xmlns="http://www.w3.org/2000/svg">
<circle cx="16.5" cy="16.5" r="16.5" fill="white"/>
<path d="M21.9293 9.90039H11.8961C10.7633 9.90039 9.90021 10.7635 9.90021 11.8963V21.9295C9.90021 23.0623 10.7633 23.9254 11.8961 23.9254H21.9293C23.0621 23.9254 23.9252 23.0623 23.9252 21.9295V11.8963C23.9252 10.7635 23.0621 9.90039 21.9293 9.90039ZM16.9127 21.1204C19.2322 21.1204 21.1202 19.2864 21.1202 17.0747C21.1202 16.6971 21.0663 16.2656 20.9584 15.9419H22.1451V21.6598C22.1451 21.9295 21.9293 22.1992 21.6057 22.1992H12.2197C11.95 22.1992 11.6803 21.9835 11.6803 21.6598V15.888H12.921C12.8131 16.2656 12.7592 16.6432 12.7592 17.0208C12.7052 19.2864 14.5932 21.1204 16.9127 21.1204ZM16.9127 19.5021C15.4023 19.5021 14.2156 18.3154 14.2156 16.8589C14.2156 15.4025 15.4023 14.2158 16.9127 14.2158C18.4231 14.2158 19.6098 15.4025 19.6098 16.8589C19.6098 18.3693 18.4231 19.5021 16.9127 19.5021ZM22.0912 13.7303C22.0912 14.0539 21.8215 14.3237 21.4978 14.3237H19.9874C19.6638 14.3237 19.3941 14.0539 19.3941 13.7303V12.2739C19.3941 11.9502 19.6638 11.6805 19.9874 11.6805H21.4978C21.8215 11.6805 22.0912 11.9502 22.0912 12.2739V13.7303Z" fill="#253B59"/>
</svg>
