<svg width="535" height="1333" viewBox="0 0 535 1333" fill="none" xmlns="http://www.w3.org/2000/svg">
<path d="M-421.696 323.211L-421.683 323.202L-421.671 323.192C-296.792 227.566 -188.336 182.997 -92.1823 192.345C3.91819 201.688 88.0376 264.925 164.179 385.668L164.195 385.693L164.213 385.718C228.457 475.27 286.427 595.056 305.966 708.455C325.506 821.865 306.582 928.619 217.436 992.571C127.926 1056.78 19.6631 1108.06 -82.2173 1120.92C-184.061 1133.78 -279.424 1108.25 -343.461 1018.98C-407.686 929.459 -471.927 787.44 -497.723 651.77C-510.62 583.939 -513.895 517.754 -502.792 460.542C-491.692 403.341 -466.233 355.161 -421.696 323.211Z" stroke="white" stroke-opacity="0.19" stroke-width="2"/>
<path d="M-454.527 286.533L-454.514 286.524L-454.502 286.514C-316.252 180.651 -196.168 131.285 -89.6988 141.618C16.7175 151.946 109.841 221.95 194.109 355.585L194.125 355.611L194.142 355.635C265.245 454.747 329.398 587.326 351.008 712.848C372.62 838.38 351.657 956.587 252.924 1027.42C153.826 1098.51 33.9664 1155.29 -78.8287 1169.54C-191.587 1183.79 -297.182 1155.55 -368.077 1056.72C-439.159 957.64 -510.248 800.455 -538.78 650.29C-553.045 575.211 -556.66 501.947 -544.357 438.606C-532.057 375.278 -503.858 321.922 -454.527 286.533Z" stroke="white" stroke-opacity="0.19" stroke-width="2"/>
</svg>
