<svg width="589" height="1333" viewBox="0 0 589 1333" fill="none" xmlns="http://www.w3.org/2000/svg">
<path d="M343.107 321.608L343.12 321.599L343.133 321.589C468.43 226.513 577.081 182.422 673.193 192.192C769.251 201.958 853.092 265.564 928.702 386.641L928.718 386.666L928.735 386.691C992.585 476.525 1050.03 596.565 1069.07 710.048C1088.11 823.543 1068.72 930.212 979.29 993.772C889.498 1057.59 781.011 1108.39 679.075 1120.8C577.175 1133.21 481.926 1107.26 418.282 1017.72C354.451 927.912 290.835 785.611 265.636 649.83C253.038 581.942 250.054 515.744 261.408 458.581C272.76 401.429 298.43 353.362 343.107 321.608Z" stroke="white" stroke-opacity="0.19" stroke-width="2"/>
<path d="M310.438 284.786L310.451 284.777L310.463 284.767C449.177 179.513 569.476 130.676 675.899 141.477C782.269 152.273 875.085 222.686 958.764 356.69L958.78 356.716L958.797 356.74C1029.46 456.164 1093.03 589.023 1114.09 714.639C1135.15 840.265 1113.67 958.379 1014.62 1028.77C915.215 1099.43 795.106 1155.68 682.249 1169.44C569.429 1183.19 463.96 1154.48 393.5 1055.35C322.854 955.954 252.458 798.458 224.586 648.169C210.651 573.028 207.358 499.748 219.939 436.463C232.518 373.189 260.952 319.958 310.438 284.786Z" stroke="white" stroke-opacity="0.19" stroke-width="2"/>
</svg>
