<svg width="44" height="44" viewBox="0 0 44 44" fill="none" xmlns="http://www.w3.org/2000/svg">
<path d="M38.5 18.3335C38.5 31.1668 22 42.1668 22 42.1668C22 42.1668 5.5 31.1668 5.5 18.3335C5.5 13.9574 7.23839 9.76058 10.3327 6.66623C13.4271 3.57188 17.6239 1.8335 22 1.8335C26.3761 1.8335 30.5729 3.57188 33.6673 6.66623C36.7616 9.76058 38.5 13.9574 38.5 18.3335Z" stroke="#70CBFF" stroke-width="1.83333" stroke-linecap="round" stroke-linejoin="round"/>
<path d="M22 23.8335C25.0376 23.8335 27.5 21.3711 27.5 18.3335C27.5 15.2959 25.0376 12.8335 22 12.8335C18.9624 12.8335 16.5 15.2959 16.5 18.3335C16.5 21.3711 18.9624 23.8335 22 23.8335Z" stroke="#70CBFF" stroke-width="1.83333" stroke-linecap="round" stroke-linejoin="round"/>
</svg>
