<svg width="44" height="45" viewBox="0 0 44 45" fill="none" xmlns="http://www.w3.org/2000/svg">
<path d="M17.863 44H16.863V45H17.863V44ZM17.863 5.6L18.5701 4.89289L16.863 3.18578V5.6H17.863ZM22.063 9.8V10.8H24.4772L22.7701 9.09289L22.063 9.8ZM9.463 9.8H8.463V10.8H9.463V9.8ZM9.463 2V0.999997H8.463V2H9.463ZM27.583 2H28.583V0.999997H27.583V2ZM27.583 44V45H28.583V44H27.583ZM18.863 44V5.6H16.863V44H18.863ZM17.1559 6.3071L21.3559 10.5071L22.7701 9.09289L18.5701 4.89289L17.1559 6.3071ZM22.063 8.8H9.463V10.8H22.063V8.8ZM10.463 9.8V2H8.463V9.8H10.463ZM9.463 3H27.583V0.999997H9.463V3ZM26.583 2V44H28.583V2H26.583ZM27.583 43H17.863V45H27.583V43Z" fill="white"/>
<path d="M19.9171 36.7808V10.5408L22.7871 13.4108H14.1771V8.08082H26.5591V36.7808H19.9171Z" fill="#253B59"/>
</svg>
