<svg width="390" height="869" viewBox="0 0 390 869" fill="none" xmlns="http://www.w3.org/2000/svg">
<path d="M50.5643 483.996V483.981L50.5638 483.965C45.6565 326.756 72.6627 212.651 136.307 139.971C199.916 67.3322 300.333 35.8434 442.825 44.3575L442.854 44.3593H442.884C553.098 44.3593 684.22 67.0806 787.749 117.306C891.289 167.536 967 245.141 967 354.853C967 465.014 945.557 582.872 896.62 673.15C847.7 763.396 771.369 826 661.51 826C551.33 826 398.487 795.414 273.214 737.291C210.581 708.231 154.894 672.312 114.879 629.941C74.8717 587.579 50.5643 538.809 50.5643 483.996Z" stroke="white" stroke-opacity="0.19" stroke-width="2"/>
<path d="M1.62447 489.293V489.277L1.62398 489.262C-3.80692 315.22 26.0791 188.872 96.537 108.384C166.96 27.9374 278.124 -6.92322 435.828 2.503L435.857 2.50478H435.887C557.866 2.50478 702.986 27.6594 817.574 83.2678C932.172 138.881 1016 224.819 1016 346.33C1016 468.291 992.268 598.779 938.102 698.738C883.952 798.665 799.45 868 677.827 868C555.882 868 386.725 834.138 248.079 769.789C178.759 737.616 117.122 697.847 72.8267 650.929C28.5399 604.019 1.62447 550.005 1.62447 489.293Z" stroke="white" stroke-opacity="0.19" stroke-width="2"/>
</svg>
