<svg width="33" height="33" viewBox="0 0 33 33" fill="none" xmlns="http://www.w3.org/2000/svg">
<circle cx="16.5" cy="16.5" r="16.5" fill="white"/>
<path d="M7.71426 16.809L11.5077 18.2235L12.9865 22.9813C13.0508 23.3028 13.4365 23.3671 13.6937 23.1742L15.8155 21.4383C16.0083 21.2454 16.3298 21.2454 16.587 21.4383L20.3804 24.203C20.6376 24.3958 21.0234 24.2672 21.0877 23.9458L23.9167 10.4438C23.9809 10.1223 23.6595 9.80083 23.338 9.92942L7.71426 15.9732C7.32848 16.1018 7.32848 16.6804 7.71426 16.809ZM12.7936 17.5163L20.2518 12.9513C20.3804 12.887 20.509 13.0799 20.3804 13.1442L14.2724 18.8665C14.0795 19.0593 13.8866 19.3165 13.8866 19.638L13.6937 21.1811C13.6937 21.374 13.3722 21.4383 13.3079 21.1811L12.5364 18.3521C12.3435 18.0306 12.4721 17.6448 12.7936 17.5163Z" fill="#253B59"/>
</svg>
