<svg width="44" height="47" viewBox="0 0 44 47" fill="none" xmlns="http://www.w3.org/2000/svg">
<path d="M10.2971 44.58L10.0295 45.5436L10.042 45.5469L10.2971 44.58ZM2.97714 41.22L2.08561 40.767L1.69752 41.5309L2.39284 42.0315L2.97714 41.22ZM6.75714 33.78L7.34411 32.9704L6.39603 32.283L5.86561 33.327L6.75714 33.78ZM12.3371 36.54L12.0317 37.4922L12.0317 37.4922L12.3371 36.54ZM24.5171 36.12L25.0827 36.9447L25.0827 36.9447L24.5171 36.12ZM24.7571 28.38L25.353 27.5769L24.7571 28.38ZM14.3171 27H13.3171V28H14.3171V27ZM14.3171 20.58L13.5673 19.9184L13.3171 20.2019V20.58H14.3171ZM26.0171 7.32L26.9722 7.0236L26.4447 5.32396L25.2673 6.65838L26.0171 7.32ZM27.0971 10.8V11.8H28.4545L28.0522 10.5036L27.0971 10.8ZM5.07714 10.8H4.07714V11.8H5.07714V10.8ZM5.07714 3V2H4.07714V3H5.07714ZM34.4771 3L35.4771 3V2L34.4771 2V3ZM34.4771 9.3L35.2287 9.95971L35.4771 9.67665V9.3H34.4771ZM22.8371 22.56L22.3399 23.4276L23.0493 23.8342L23.5887 23.2197L22.8371 22.56ZM17.9171 19.74V18.74H14.1615L17.4199 20.6076L17.9171 19.74ZM32.4371 23.22L31.777 23.9712L31.777 23.9712L32.4371 23.22ZM34.5371 38.82L35.3917 39.3394L35.3961 39.3321L34.5371 38.82ZM28.8371 43.8L28.3899 42.9056L28.3899 42.9056L28.8371 43.8ZM18.9971 44.72C16.165 44.72 13.3507 44.3516 10.5523 43.6131L10.042 45.5469C13.0036 46.3284 15.9893 46.72 18.9971 46.72V44.72ZM10.5648 43.6165C7.77501 42.8415 5.44773 41.7666 3.56144 40.4085L2.39284 42.0315C4.50655 43.5534 7.05927 44.7185 10.0295 45.5435L10.5648 43.6165ZM3.86867 41.673L7.64867 34.233L5.86561 33.327L2.08561 40.767L3.86867 41.673ZM6.17017 34.5896C7.86597 35.8191 9.8235 36.7839 12.0317 37.4922L12.6426 35.5878C10.6108 34.9361 8.84831 34.0609 7.34411 32.9704L6.17017 34.5896ZM12.0317 37.4922C14.2474 38.2029 16.4903 38.56 18.7571 38.56V36.56C16.704 36.56 14.6669 36.2371 12.6426 35.5878L12.0317 37.4922ZM18.7571 38.56C21.3146 38.56 23.458 38.0588 25.0827 36.9447L23.9516 35.2953C22.7763 36.1012 21.0797 36.56 18.7571 36.56V38.56ZM25.0827 36.9447C26.7512 35.8006 27.6171 34.1738 27.6171 32.16H25.6171C25.6171 33.5062 25.0831 34.5194 23.9516 35.2953L25.0827 36.9447ZM27.6171 32.16C27.6171 30.2569 26.8579 28.6934 25.353 27.5769L24.1613 29.1831C25.1364 29.9066 25.6171 30.8631 25.6171 32.16H27.6171ZM25.353 27.5769C23.8506 26.4622 21.5828 26 18.7571 26V28C21.4515 28 23.1837 28.4578 24.1613 29.1831L25.353 27.5769ZM18.7571 26H14.3171V28H18.7571V26ZM15.3171 27V20.58H13.3171V27H15.3171ZM15.067 21.2416L26.767 7.98162L25.2673 6.65838L13.5673 19.9184L15.067 21.2416ZM25.0621 7.6164L26.1421 11.0964L28.0522 10.5036L26.9722 7.0236L25.0621 7.6164ZM27.0971 9.8H5.07714L5.07714 11.8H27.0971V9.8ZM6.07714 10.8L6.07714 3H4.07714L4.07714 10.8H6.07714ZM5.07714 4H34.4771V2H5.07714V4ZM33.4771 3V9.3H35.4771V3L33.4771 3ZM33.7256 8.64029L22.0856 21.9003L23.5887 23.2197L35.2287 9.95971L33.7256 8.64029ZM23.3344 21.6924L18.4144 18.8724L17.4199 20.6076L22.3399 23.4276L23.3344 21.6924ZM17.9171 20.74H20.7371V18.74H17.9171V20.74ZM20.7371 20.74C25.7654 20.74 29.3886 21.8723 31.777 23.9712L33.0973 22.4688C30.2056 19.9277 26.0288 18.74 20.7371 18.74V20.74ZM31.777 23.9712C34.1923 26.0937 35.3971 28.7959 35.3971 32.16H37.3971C37.3971 28.2441 35.9619 24.9863 33.0973 22.4688L31.777 23.9712ZM35.3971 32.16C35.3971 34.3348 34.8284 36.3785 33.6782 38.3079L35.3961 39.3321C36.7259 37.1015 37.3971 34.7052 37.3971 32.16H35.3971ZM33.6826 38.3006C32.5583 40.1502 30.8154 41.6929 28.3899 42.9056L29.2844 44.6944C31.9789 43.3471 34.036 41.5698 35.3917 39.3394L33.6826 38.3006ZM28.3899 42.9056C26.0127 44.0942 22.8999 44.72 18.9971 44.72V46.72C23.0944 46.72 26.5415 46.0658 29.2844 44.6944L28.3899 42.9056Z" fill="white"/>
<path d="M20.6921 38.5742C18.6967 38.5742 16.7151 38.3145 14.7471 37.7952C12.7791 37.2485 11.1117 36.4832 9.74507 35.4992L12.3281 30.4152C13.4214 31.2078 14.6924 31.8365 16.1411 32.3012C17.5897 32.7658 19.0521 32.9982 20.5281 32.9982C22.1954 32.9982 23.5074 32.6702 24.4641 32.0142C25.4207 31.3582 25.8991 30.4562 25.8991 29.3082C25.8991 28.2148 25.4754 27.3538 24.6281 26.7252C23.7807 26.0965 22.4141 25.7822 20.5281 25.7822H17.4941V21.3952L25.4891 12.3342L26.2271 14.7122H11.1801V9.38215H31.2701V13.6872L23.3161 22.7482L19.9541 20.8212H21.8811C25.4071 20.8212 28.0721 21.6138 29.8761 23.1992C31.6801 24.7845 32.5821 26.8208 32.5821 29.3082C32.5821 30.9208 32.1584 32.4378 31.3111 33.8592C30.4637 35.2532 29.1654 36.3875 27.4161 37.2622C25.6667 38.1368 23.4254 38.5742 20.6921 38.5742Z" fill="#253B59"/>
</svg>
