<svg width="44" height="45" viewBox="0 0 44 45" fill="none" xmlns="http://www.w3.org/2000/svg">
<path d="M5.07573 44H4.07573V45H5.07573V44ZM5.07573 37.7L4.38911 36.973L4.07573 37.269V37.7H5.07573ZM21.2757 22.4L20.6042 21.659L20.5966 21.6659L20.5891 21.673L21.2757 22.4ZM24.0957 19.28L24.9333 19.8263L24.9333 19.8263L24.0957 19.28ZM25.2957 16.76L24.3422 16.4589L24.3348 16.482L24.3287 16.5055L25.2957 16.76ZM23.9157 10.82L23.281 11.5927L23.2959 11.605L23.3113 11.6167L23.9157 10.82ZM14.0157 10.46L13.6073 9.54714L13.5982 9.55132L14.0157 10.46ZM10.2357 13.64L9.69426 14.4807L10.4913 14.9941L11.0464 14.2255L10.2357 13.64ZM3.15573 9.08L2.32368 8.5253L1.76014 9.37061L2.61426 9.92071L3.15573 9.08ZM9.87573 3.38L9.43854 2.48063L9.43854 2.48063L9.87573 3.38ZM27.9957 2.84L27.5867 3.75251L27.5961 3.75673L27.6056 3.76075L27.9957 2.84ZM33.4557 7.1L32.6348 7.67106L32.639 7.67702L32.6432 7.68291L33.4557 7.1ZM34.8957 17.78L33.929 17.5241L33.9264 17.5342L33.9239 17.5444L34.8957 17.78ZM32.8557 21.98L32.0375 21.4051L32.0323 21.4126L32.0271 21.4201L32.8557 21.98ZM28.4157 26.96L27.7313 26.2309L27.7301 26.2321L28.4157 26.96ZM14.9757 39.62L14.0905 40.0851L14.7029 41.2508L15.6614 40.3479L14.9757 39.62ZM13.1157 36.08V35.08H11.4607L12.2305 36.5451L13.1157 36.08ZM36.8157 36.08H37.8157V35.08H36.8157V36.08ZM36.8157 44V45H37.8157V44H36.8157ZM6.07573 44V37.7H4.07573V44H6.07573ZM5.76236 38.427L21.9624 23.127L20.5891 21.673L4.38911 36.973L5.76236 38.427ZM21.9473 23.141C23.2589 21.9523 24.2678 20.8468 24.9333 19.8263L23.2581 18.7337C22.7237 19.5532 21.8525 20.5277 20.6042 21.659L21.9473 23.141ZM24.9333 19.8263C25.5704 18.8494 26.0271 17.9102 26.2628 17.0145L24.3287 16.5055C24.1644 17.1298 23.821 17.8706 23.2581 18.7337L24.9333 19.8263ZM26.2493 17.0611C26.5129 16.2266 26.6557 15.4236 26.6557 14.66H24.6557C24.6557 15.1764 24.5586 15.7734 24.3422 16.4589L26.2493 17.0611ZM26.6557 14.66C26.6557 12.7218 25.9699 11.1231 24.5201 10.0233L23.3113 11.6167C24.1816 12.2769 24.6557 13.2382 24.6557 14.66H26.6557ZM24.5505 10.0473C23.1795 8.92108 21.2525 8.44 18.9357 8.44V10.44C21.0189 10.44 22.412 10.8789 23.281 11.5927L24.5505 10.0473ZM18.9357 8.44C17.0432 8.44 15.2631 8.80646 13.6074 9.54718L14.4241 11.3728C15.8084 10.7535 17.3083 10.44 18.9357 10.44V8.44ZM13.5982 9.55132C11.9475 10.3098 10.5566 11.4877 9.42505 13.0545L11.0464 14.2255C11.9948 12.9123 13.1239 11.9702 14.4332 11.3687L13.5982 9.55132ZM10.7772 12.7993L3.69721 8.23928L2.61426 9.92071L9.69426 14.4807L10.7772 12.7993ZM3.98778 9.6347C5.47857 7.39852 7.57477 5.61041 10.3129 4.27936L9.43854 2.48063C6.4167 3.94958 4.0329 5.96147 2.32368 8.5253L3.98778 9.6347ZM10.3129 4.27937C13.0349 2.95618 16.201 2.28 19.8357 2.28V0.279999C15.9505 0.279999 12.4765 1.00382 9.43854 2.48063L10.3129 4.27937ZM19.8357 2.28C22.846 2.28 25.4211 2.78173 27.5867 3.75251L28.4048 1.92749C25.9304 0.81827 23.0655 0.279999 19.8357 0.279999V2.28ZM27.6056 3.76075C29.8174 4.69797 31.4774 6.00721 32.6348 7.67106L34.2766 6.52893C32.8741 4.51279 30.8941 2.98203 28.3859 1.91925L27.6056 3.76075ZM32.6432 7.68291C33.8257 9.33126 34.4357 11.3207 34.4357 13.7H36.4357C36.4357 10.9593 35.7258 8.54874 34.2683 6.51709L32.6432 7.68291ZM34.4357 13.7C34.4357 14.9707 34.2677 16.2447 33.929 17.5241L35.8624 18.0359C36.2438 16.5953 36.4357 15.1493 36.4357 13.7H34.4357ZM33.9239 17.5444C33.6414 18.7096 33.0281 19.9955 32.0375 21.4051L33.6739 22.5549C34.7634 21.0045 35.5101 19.4904 35.8676 18.0156L33.9239 17.5444ZM32.0271 21.4201C31.084 22.816 29.6614 24.419 27.7313 26.2309L29.1002 27.6891C31.0901 25.821 32.6275 24.104 33.6843 22.5399L32.0271 21.4201ZM27.7301 26.2321L14.2901 38.8921L15.6614 40.3479L29.1014 27.6879L27.7301 26.2321ZM15.861 39.1549L14.001 35.6149L12.2305 36.5451L14.0905 40.0851L15.861 39.1549ZM13.1157 37.08H36.8157V35.08H13.1157V37.08ZM35.8157 36.08V44H37.8157V36.08H35.8157ZM36.8157 43H5.07573V45H36.8157V43Z" fill="white"/>
<path d="M11.1791 36.7808V32.4758L22.2491 22.0208C23.1238 21.2282 23.7661 20.5175 24.1761 19.8888C24.5861 19.2602 24.8594 18.6862 24.9961 18.1668C25.1601 17.6475 25.2421 17.1692 25.2421 16.7318C25.2421 15.5838 24.8458 14.7092 24.0531 14.1078C23.2878 13.4792 22.1534 13.1648 20.6501 13.1648C19.4474 13.1648 18.3268 13.3972 17.2881 13.8618C16.2768 14.3265 15.4158 15.0508 14.7051 16.0348L9.86711 12.9188C10.9604 11.2788 12.4911 9.98049 14.4591 9.02382C16.4271 8.06716 18.6958 7.58882 21.2651 7.58882C23.3971 7.58882 25.2558 7.94416 26.8411 8.65482C28.4538 9.33816 29.6974 10.3085 30.5721 11.5658C31.4741 12.8232 31.9251 14.3265 31.9251 16.0758C31.9251 17.0052 31.8021 17.9345 31.5561 18.8638C31.3374 19.7658 30.8728 20.7225 30.1621 21.7338C29.4788 22.7452 28.4674 23.8795 27.1281 25.1368L17.9441 33.7878L16.6731 31.3688H32.8681V36.7808H11.1791Z" fill="#253B59"/>
</svg>
