<svg width="33" height="33" viewBox="0 0 33 33" fill="none" xmlns="http://www.w3.org/2000/svg">
<circle cx="16.5" cy="16.5" r="16.5" fill="white"/>
<path d="M24.5901 20.7222C24.5901 20.6537 24.5216 20.6537 24.5216 20.5852C24.2476 20.0373 23.6312 19.3523 22.8092 18.5989C22.3983 18.2564 22.1928 17.9825 22.0558 17.8455C21.8503 17.5715 21.8503 17.366 21.9188 17.092C21.9873 16.8866 22.2613 16.5441 22.7407 15.9276C23.0147 15.5852 23.1517 15.3797 23.3572 15.1742C24.3846 13.8043 24.864 12.9139 24.7271 12.5029L24.6586 12.4345C24.5901 12.366 24.5216 12.2975 24.3846 12.2975C24.2476 12.229 24.0421 12.229 23.8366 12.2975H21.2339C21.1654 12.2975 21.1654 12.2975 21.0284 12.2975C20.9599 12.2975 20.8914 12.2975 20.8914 12.2975H20.8229H20.7544L20.6859 12.366C20.6174 12.4344 20.6174 12.4344 20.6174 12.5029C20.3434 13.2564 20.001 13.8728 19.6585 14.5578C19.453 14.9002 19.2476 15.2427 19.0421 15.5167C18.8366 15.7907 18.6996 15.9961 18.5626 16.1331C18.4256 16.2701 18.2886 16.3386 18.2201 16.4756C18.1516 16.5441 18.0147 16.6126 18.0147 16.5441C17.9462 16.5441 17.8777 16.5441 17.8777 16.4756C17.8092 16.4071 17.7407 16.3386 17.6722 16.2701C17.6037 16.2016 17.6037 16.0646 17.5352 15.9276C17.5352 15.7906 17.5352 15.6537 17.5352 15.5852C17.5352 15.5167 17.5352 15.3112 17.5352 15.1742C17.5352 14.9687 17.5352 14.8317 17.5352 14.7632C17.5352 14.5578 17.5352 14.2838 17.5352 14.0098C17.5352 13.7358 17.5352 13.5303 17.5352 13.3934C17.5352 13.2564 17.5352 13.0509 17.5352 12.9139C17.5352 12.7084 17.5352 12.5714 17.5352 12.5029C17.5352 12.4344 17.4667 12.2975 17.4667 12.229C17.3982 12.1605 17.3297 12.092 17.2612 12.0235C17.1927 11.955 17.0558 11.955 16.9873 11.8865C16.6448 11.818 16.2338 11.7495 15.7544 11.7495C14.6585 11.7495 13.905 11.818 13.6311 11.955C13.4941 12.0235 13.3571 12.092 13.2886 12.229C13.1516 12.366 13.1516 12.4345 13.2201 12.4345C13.5626 12.5029 13.8365 12.6399 13.9735 12.8454L14.042 12.9824C14.1105 13.0509 14.1105 13.1879 14.179 13.3934C14.2475 13.5988 14.2475 13.8043 14.2475 14.0783C14.2475 14.4893 14.2475 14.9002 14.2475 15.1742C14.2475 15.5167 14.179 15.7222 14.179 15.9276C14.179 16.1331 14.1105 16.2701 14.042 16.3386C13.9735 16.4756 13.9735 16.5441 13.905 16.5441C13.905 16.5441 13.905 16.6126 13.8365 16.6126C13.768 16.6126 13.6995 16.6811 13.5626 16.6811C13.4941 16.6811 13.3571 16.6126 13.2886 16.5441C13.1516 16.4756 13.0146 16.3386 12.9461 16.2016C12.8091 16.0646 12.6721 15.8591 12.5352 15.5852C12.3982 15.3112 12.1927 15.0372 12.0557 14.6263L11.9187 14.3523C11.8502 14.2153 11.7132 13.9413 11.5762 13.5988C11.4393 13.2564 11.3023 12.9824 11.1653 12.6399C11.0968 12.5029 11.0283 12.4344 10.9598 12.366H10.8913C10.8913 12.366 10.8228 12.2975 10.7543 12.2975C10.6858 12.2975 10.6173 12.229 10.5488 12.229H8.08305C7.80907 12.229 7.67209 12.2975 7.60359 12.366L7.5351 12.4345C7.5351 12.4345 7.5351 12.5029 7.5351 12.5714C7.5351 12.6399 7.5351 12.7084 7.60359 12.8454C7.94606 13.6673 8.35702 14.4893 8.76799 15.3112C9.17895 16.0646 9.58992 16.7496 9.86389 17.229C10.2064 17.7085 10.4803 18.1879 10.8228 18.5989C11.1653 19.0099 11.3708 19.2838 11.4392 19.4208C11.5762 19.5578 11.6447 19.6263 11.7132 19.6948L11.9187 19.9003C12.0557 20.0373 12.2612 20.2428 12.5352 20.4482C12.8091 20.6537 13.1516 20.8592 13.4941 21.0647C13.8365 21.2702 14.2475 21.4072 14.6585 21.5441C15.1379 21.6811 15.5489 21.7496 15.9598 21.6811H16.9873C17.1927 21.6811 17.3297 21.6126 17.4667 21.4756L17.5352 21.4071C17.5352 21.3387 17.6037 21.3387 17.6037 21.2702C17.6037 21.2017 17.6037 21.1332 17.6037 20.9962C17.6037 20.7222 17.6037 20.5167 17.6722 20.3113C17.7407 20.1058 17.7407 19.9688 17.8092 19.8318C17.8777 19.6948 17.9462 19.6263 18.0147 19.5578C18.0832 19.4893 18.1517 19.4208 18.1517 19.4208H18.2201C18.3571 19.3523 18.5626 19.4208 18.6996 19.5578C18.9051 19.6948 19.1106 19.9003 19.2475 20.1058C19.3845 20.3112 19.59 20.5167 19.864 20.7907C20.138 21.0647 20.3435 21.2702 20.4805 21.3387L20.6859 21.4756C20.8229 21.5441 20.9599 21.6126 21.1654 21.6811C21.3709 21.7496 21.5078 21.7496 21.6448 21.7496L23.9736 21.6811C24.1791 21.6811 24.3846 21.6126 24.5216 21.5441C24.6586 21.4756 24.7271 21.4071 24.7271 21.2702C24.7271 21.2017 24.7271 21.0647 24.7271 20.9962C24.5901 20.8592 24.5901 20.7907 24.5901 20.7222Z" fill="#253B59"/>
</svg>
